<svg xmlns="http://www.w3.org/2000/svg" xmlns:xlink="http://www.w3.org/1999/xlink" width="768" zoomAndPan="magnify" viewBox="0 0 576 576" height="768" preserveAspectRatio="xMidYMid meet" version="1.0"><defs><clipPath id="9cf55223ca"><path d="M 37.125 248 L 100 248 L 100 375 L 37.125 375 Z M 37.125 248 " clip-rule="nonzero"/></clipPath><clipPath id="1fc19c600b"><path d="M 476 248 L 538.875 248 L 538.875 375 L 476 375 Z M 476 248 " clip-rule="nonzero"/></clipPath><clipPath id="ea9a5a1f4a"><path d="M 264 84.164062 L 312 84.164062 L 312 132 L 264 132 Z M 264 84.164062 " clip-rule="nonzero"/></clipPath><clipPath id="64e20c5f12"><path d="M 256 429 L 336 429 L 336 492.164062 L 256 492.164062 Z M 256 429 " clip-rule="nonzero"/></clipPath></defs><path fill="#ffffff" d="M 358.558594 311.703125 C 349.898438 311.703125 342.878906 304.675781 342.878906 296.007812 C 342.878906 287.34375 349.898438 280.316406 358.558594 280.316406 C 367.214844 280.316406 374.238281 287.34375 374.238281 296.007812 C 374.238281 304.675781 367.214844 311.703125 358.558594 311.703125 Z M 288 362.617188 C 266.347656 362.617188 248.800781 348.566406 248.800781 331.234375 L 327.199219 331.234375 C 327.199219 348.566406 309.648438 362.617188 288 362.617188 Z M 217.441406 311.703125 C 208.78125 311.703125 201.761719 304.675781 201.761719 296.007812 C 201.761719 287.34375 208.78125 280.316406 217.441406 280.316406 C 226.097656 280.316406 233.121094 287.34375 233.121094 296.007812 C 233.121094 304.675781 226.097656 311.703125 217.441406 311.703125 Z M 350.71875 217.546875 L 225.28125 217.546875 C 199.300781 217.546875 175.78125 228.085938 158.757812 245.125 C 141.730469 262.164062 131.203125 285.703125 131.203125 311.703125 C 131.203125 363.703125 173.320312 405.855469 225.28125 405.855469 L 350.71875 405.855469 C 376.695312 405.855469 400.214844 395.316406 417.238281 378.277344 C 434.265625 361.238281 444.796875 337.699219 444.796875 311.703125 C 444.796875 259.699219 402.675781 217.546875 350.71875 217.546875 " fill-opacity="1" fill-rule="nonzero"/><path fill="#ffffff" d="M 288 468.625 L 240.960938 468.625 C 219.796875 468.625 199.261719 464.476562 179.925781 456.289062 C 161.253906 448.386719 144.484375 437.070312 130.085938 422.664062 C 115.691406 408.253906 104.386719 391.472656 96.488281 372.785156 C 88.308594 353.433594 84.164062 332.882812 84.164062 311.703125 C 84.164062 290.519531 88.308594 269.96875 96.488281 250.617188 C 104.386719 231.929688 115.691406 215.148438 130.085938 200.738281 C 144.484375 186.332031 161.253906 175.019531 179.925781 167.113281 C 199.261719 158.925781 219.796875 154.777344 240.960938 154.777344 L 335.039062 154.777344 C 356.203125 154.777344 376.738281 158.925781 396.074219 167.113281 C 414.746094 175.019531 431.511719 186.332031 445.910156 200.738281 C 460.304688 215.148438 471.613281 231.929688 479.511719 250.617188 C 487.691406 269.96875 491.835938 290.519531 491.835938 311.703125 L 476.15625 311.703125 C 476.15625 233.828125 412.851562 170.472656 335.039062 170.472656 L 240.960938 170.472656 C 163.148438 170.472656 99.84375 233.828125 99.84375 311.703125 C 99.84375 389.578125 163.148438 452.933594 240.960938 452.933594 L 288 452.933594 L 288 468.625 " fill-opacity="1" fill-rule="nonzero"/><g clip-path="url(#9cf55223ca)"><path fill="#ffffff" d="M 99.84375 374.472656 C 65.203125 374.472656 37.125 346.367188 37.125 311.703125 C 37.125 277.035156 65.203125 248.933594 99.84375 248.933594 L 99.84375 374.472656 " fill-opacity="1" fill-rule="nonzero"/></g><g clip-path="url(#1fc19c600b)"><path fill="#ffffff" d="M 476.15625 374.472656 C 510.796875 374.472656 538.875 346.367188 538.875 311.703125 C 538.875 277.035156 510.796875 248.933594 476.15625 248.933594 L 476.15625 374.472656 " fill-opacity="1" fill-rule="nonzero"/></g><path fill="#ffffff" d="M 327.199219 225.394531 C 327.199219 242.726562 309.648438 256.777344 288 256.777344 C 266.351562 256.777344 248.800781 242.726562 248.800781 225.394531 C 248.800781 208.0625 266.351562 194.007812 288 194.007812 C 309.648438 194.007812 327.199219 208.0625 327.199219 225.394531 " fill-opacity="1" fill-rule="nonzero"/><g clip-path="url(#ea9a5a1f4a)"><path fill="#ffffff" d="M 311.519531 107.703125 C 311.519531 120.703125 300.988281 131.242188 288 131.242188 C 275.007812 131.242188 264.480469 120.703125 264.480469 107.703125 C 264.480469 94.703125 275.007812 84.164062 288 84.164062 C 300.988281 84.164062 311.519531 94.703125 311.519531 107.703125 " fill-opacity="1" fill-rule="nonzero"/></g><g clip-path="url(#64e20c5f12)"><path fill="#ffffff" d="M 335.039062 460.777344 C 335.039062 478.113281 317.488281 492.164062 295.839844 492.164062 C 274.191406 492.164062 256.640625 478.113281 256.640625 460.777344 C 256.640625 443.445312 274.191406 429.394531 295.839844 429.394531 C 317.488281 429.394531 335.039062 443.445312 335.039062 460.777344 " fill-opacity="1" fill-rule="nonzero"/></g><path fill="#ffffff" d="M 295.839844 249.265625 L 280.160156 249.265625 L 280.160156 107.703125 L 295.839844 107.703125 L 295.839844 249.265625 " fill-opacity="1" fill-rule="nonzero"/></svg>