<svg xmlns="http://www.w3.org/2000/svg" xmlns:xlink="http://www.w3.org/1999/xlink" width="1024" zoomAndPan="magnify" viewBox="0 0 768 767.999994" height="1024" preserveAspectRatio="xMidYMid meet" version="1.0"><defs><clipPath id="e2b3d209ce"><path d="M 0.5 0 L 767.5 0 L 767.5 765.6875 L 0.5 765.6875 Z M 0.5 0 " clip-rule="nonzero"/></clipPath></defs><path fill="#000000" d="M 559.066406 402.898438 C 555.09375 408.832031 549.457031 413.457031 542.859375 416.195312 C 536.25 418.925781 528.980469 419.644531 521.976562 418.25 C 514.964844 416.851562 508.53125 413.414062 503.484375 408.359375 C 498.425781 403.324219 494.988281 396.882812 493.597656 389.875 C 492.199219 382.875 492.914062 375.613281 495.644531 369.007812 C 498.382812 362.414062 503.011719 356.769531 508.949219 352.800781 C 514.894531 348.835938 521.878906 346.714844 529.023438 346.714844 C 538.605469 346.714844 547.796875 350.53125 554.566406 357.296875 C 561.34375 364.074219 565.15625 373.253906 565.15625 382.832031 C 565.15625 389.972656 563.035156 396.957031 559.066406 402.898438 Z M 414.554688 402.898438 C 410.582031 408.832031 404.9375 413.457031 398.339844 416.195312 C 391.734375 418.925781 384.46875 419.644531 377.460938 418.25 C 370.453125 416.851562 364.011719 413.414062 358.96875 408.359375 C 353.914062 403.324219 350.472656 396.882812 349.078125 389.875 C 347.679688 382.875 348.402344 375.613281 351.132812 369.007812 C 353.871094 362.414062 358.496094 356.769531 364.433594 352.800781 C 370.378906 348.835938 377.367188 346.714844 384.507812 346.714844 C 394.089844 346.714844 403.277344 350.53125 410.054688 357.296875 C 416.824219 364.074219 420.640625 373.253906 420.640625 382.832031 C 420.640625 389.972656 418.519531 396.957031 414.554688 402.898438 Z M 270.039062 402.898438 C 266.066406 408.832031 260.421875 413.457031 253.820312 416.195312 C 247.222656 418.925781 239.953125 419.644531 232.949219 418.25 C 225.9375 416.851562 219.496094 413.414062 214.457031 408.359375 C 209.398438 403.324219 205.960938 396.882812 204.5625 389.875 C 203.167969 382.875 203.886719 375.613281 206.621094 369.007812 C 209.359375 362.414062 213.984375 356.769531 219.921875 352.800781 C 225.867188 348.835938 232.851562 346.714844 239.996094 346.714844 C 249.578125 346.714844 258.761719 350.53125 265.539062 357.296875 C 272.3125 364.074219 276.128906 373.253906 276.128906 382.832031 C 276.128906 389.972656 274.007812 396.957031 270.039062 402.898438 Z M 639.085938 246.464844 C 607.527344 187.546875 556.503906 141.378906 494.71875 115.84375 C 432.921875 90.3125 364.179688 86.980469 300.207031 106.417969 C 236.234375 125.859375 180.980469 166.875 143.863281 222.472656 C 106.753906 278.074219 90.070312 344.804688 96.664062 411.320312 C 103.253906 477.832031 132.710938 540 180.027344 587.226562 C 186.828125 593.894531 190.726562 602.980469 190.859375 612.515625 C 190.835938 617.28125 189.871094 622.015625 188.007812 626.417969 C 186.15625 630.8125 183.441406 634.804688 180.027344 638.152344 L 146.421875 671.734375 L 384.507812 671.734375 C 451.375 671.679688 516.15625 648.460938 567.808594 606.015625 C 619.46875 563.574219 654.804688 504.554688 667.796875 438.984375 C 680.796875 373.421875 670.648438 305.386719 639.085938 246.464844 " fill-opacity="1" fill-rule="nonzero"/><g clip-path="url(#e2b3d209ce)"><path fill="#000000" d="M 639.980469 638.1875 C 572.226562 705.910156 480.332031 743.964844 384.507812 743.964844 L 59.355469 743.964844 C 52.203125 744.261719 45.117188 742.4375 39.007812 738.703125 C 32.894531 734.980469 28.035156 729.511719 25.03125 723.011719 C 22.265625 716.433594 21.503906 709.1875 22.859375 702.1875 C 24.21875 695.179688 27.609375 688.734375 32.617188 683.652344 L 104.878906 611.429688 C 51.792969 547.097656 22.90625 466.21875 23.230469 382.832031 C 23.230469 287.058594 61.285156 195.195312 129.042969 127.476562 C 162.589844 93.933594 202.417969 67.335938 246.25 49.191406 C 290.089844 31.039062 337.0625 21.699219 384.507812 21.699219 C 480.332031 21.699219 572.226562 59.746094 639.980469 127.476562 C 707.726562 195.195312 745.796875 287.058594 745.796875 382.832031 C 745.796875 478.605469 707.726562 570.46875 639.980469 638.1875 Z M 655.332031 112.132812 C 583 39.824219 486.824219 0.0078125 384.515625 0.0078125 C 333.933594 0.0078125 284.632812 9.8125 237.945312 29.152344 C 191.242188 48.472656 149.4375 76.398438 113.691406 112.132812 C 41.355469 184.425781 1.519531 280.566406 1.519531 382.742188 C 1.207031 464.410156 27.511719 544.238281 75.949219 609.660156 L 17.1875 668.398438 C 9.136719 676.539062 3.730469 686.792969 1.542969 698.078125 C -0.632812 709.324219 0.578125 720.847656 5.324219 732.109375 C 10.160156 742.5625 17.890625 751.253906 27.691406 757.222656 C 36.769531 762.765625 47.191406 765.6875 57.851562 765.6875 L 384.515625 765.664062 C 486.8125 765.664062 582.980469 725.839844 655.332031 653.519531 C 727.65625 581.238281 767.5 485.105469 767.5 382.832031 C 767.5 280.566406 727.65625 184.425781 655.332031 112.132812 " fill-opacity="1" fill-rule="nonzero"/></g></svg>