<svg xmlns="http://www.w3.org/2000/svg" xmlns:xlink="http://www.w3.org/1999/xlink" width="1024" zoomAndPan="magnify" viewBox="0 0 768 767.999994" height="1024" preserveAspectRatio="xMidYMid meet" version="1.0"><defs><g/><clipPath id="f2f6309f36"><path d="M 270 220 L 671 220 L 671 647.523438 L 270 647.523438 Z M 270 220 " clip-rule="nonzero"/></clipPath><clipPath id="14fea3c9d7"><path d="M 96 120.273438 L 528 120.273438 L 528 552 L 96 552 Z M 96 120.273438 " clip-rule="nonzero"/></clipPath></defs><g clip-path="url(#f2f6309f36)"><path fill="#ffffff" d="M 333.640625 526.5 C 364.210938 556.5625 407.382812 575.453125 455.308594 575.453125 C 478.96875 575.453125 502.042969 570.828125 523.835938 561.757812 L 542.199219 554.085938 L 602.601562 579.105469 L 580.667969 526.070312 L 595.777344 504.554688 C 613.511719 479.25 622.882812 449.925781 622.882812 419.765625 C 622.882812 355.605469 580.847656 300.414062 521.019531 276.609375 L 496.679688 220.078125 C 595.863281 238.316406 670.777344 320.765625 670.777344 419.765625 C 670.777344 461.285156 657.539062 499.878906 634.964844 532.054688 L 668.953125 614.1875 C 674 626.382812 668.199219 640.371094 655.988281 645.460938 C 649.859375 648 643.316406 647.796875 637.664062 645.460938 L 542.277344 605.941406 C 515.640625 617.023438 486.285156 623.339844 455.308594 623.339844 C 376.46875 623.339844 307.757812 583.210938 270.195312 523.578125 Z M 333.640625 526.5 " fill-opacity="1" fill-rule="nonzero"/></g><path fill="#ffffff" d="M 496.691406 220.078125 L 496.722656 220.121094 Z M 496.691406 220.078125 " fill-opacity="1" fill-rule="nonzero"/><g clip-path="url(#14fea3c9d7)"><path fill="#ffffff" d="M 520.996094 276.609375 L 521.027344 276.609375 L 496.6875 220.078125 C 459.074219 160.523438 390.445312 120.511719 311.664062 120.511719 C 192.664062 120.511719 96.199219 211.625 96.199219 324.042969 C 96.199219 365.515625 109.433594 404.105469 132.015625 436.28125 L 98.023438 518.40625 C 92.972656 530.601562 98.769531 544.59375 111.007812 549.679688 C 117.113281 552.214844 123.648438 552.015625 129.308594 549.679688 L 224.714844 510.167969 C 239.117188 516.148438 254.378906 520.589844 270.214844 523.578125 L 270.195312 523.578125 L 333.640625 526.492188 C 442.332031 516.097656 527.132812 429.40625 527.132812 324.042969 C 527.132812 307.671875 524.875 291.867188 520.996094 276.609375 Z M 311.664062 479.671875 C 288.007812 479.671875 264.929688 475.03125 243.132812 465.976562 L 224.773438 458.304688 L 164.363281 483.316406 L 186.320312 430.28125 L 171.210938 408.773438 C 153.433594 383.476562 144.066406 354.160156 144.066406 324.035156 C 144.082031 238.222656 219.273438 168.402344 311.664062 168.402344 C 404.085938 168.402344 479.246094 238.222656 479.246094 324.042969 C 479.246094 409.851562 404.085938 479.671875 311.664062 479.671875 Z M 311.664062 479.671875 " fill-opacity="1" fill-rule="nonzero"/></g><g fill="#ffffff" fill-opacity="1"><g transform="translate(222.079708, 380.780156)"><g><path d="M 78.046875 -24.59375 L 34.921875 -24.59375 L 26.71875 0 L 0.578125 0 L 45 -119.359375 L 67.796875 -119.359375 L 112.46875 0 L 86.328125 0 Z M 41.5625 -44.515625 L 71.40625 -44.515625 L 56.40625 -89.1875 Z M 41.5625 -44.515625 "/></g></g></g><g fill="#ffffff" fill-opacity="1"><g transform="translate(335.0478, 380.780156)"><g><path d="M 36.8125 0 L 12.21875 0 L 12.21875 -119.359375 L 36.8125 -119.359375 Z M 36.8125 0 "/></g></g></g></svg>