<svg xmlns="http://www.w3.org/2000/svg" xmlns:xlink="http://www.w3.org/1999/xlink" width="40" zoomAndPan="magnify" viewBox="0 0 30 30.000001" height="40" preserveAspectRatio="xMidYMid meet" version="1.0"><defs><clipPath id="18542c2ce7"><path d="M 0.484375 12 L 5 12 L 5 20 L 0.484375 20 Z M 0.484375 12 " clip-rule="nonzero"/></clipPath><clipPath id="0f81eacee4"><path d="M 25 12 L 29.515625 12 L 29.515625 20 L 25 20 Z M 25 12 " clip-rule="nonzero"/></clipPath><clipPath id="781ac31292"><path d="M 13 2.539062 L 17 2.539062 L 17 6 L 13 6 Z M 13 2.539062 " clip-rule="nonzero"/></clipPath><clipPath id="0e132b3d54"><path d="M 13 22 L 18 22 L 18 26.492188 L 13 26.492188 Z M 13 22 " clip-rule="nonzero"/></clipPath></defs><path fill="#ffffff" d="M 19.082031 15.898438 C 18.582031 15.898438 18.175781 15.484375 18.175781 14.976562 C 18.175781 14.46875 18.582031 14.054688 19.082031 14.054688 C 19.582031 14.054688 19.988281 14.46875 19.988281 14.976562 C 19.988281 15.484375 19.582031 15.898438 19.082031 15.898438 Z M 15 18.886719 C 13.746094 18.886719 12.730469 18.0625 12.730469 17.042969 L 17.269531 17.042969 C 17.269531 18.0625 16.253906 18.886719 15 18.886719 Z M 10.917969 15.898438 C 10.417969 15.898438 10.011719 15.484375 10.011719 14.976562 C 10.011719 14.46875 10.417969 14.054688 10.917969 14.054688 C 11.417969 14.054688 11.824219 14.46875 11.824219 14.976562 C 11.824219 15.484375 11.417969 15.898438 10.917969 15.898438 Z M 18.628906 10.371094 L 11.371094 10.371094 C 9.867188 10.371094 8.507812 10.988281 7.523438 11.988281 C 6.535156 12.988281 5.925781 14.371094 5.925781 15.898438 C 5.925781 18.949219 8.363281 21.425781 11.371094 21.425781 L 18.628906 21.425781 C 20.132812 21.425781 21.492188 20.804688 22.476562 19.804688 C 23.464844 18.804688 24.074219 17.425781 24.074219 15.898438 C 24.074219 12.84375 21.636719 10.371094 18.628906 10.371094 " fill-opacity="1" fill-rule="nonzero"/><path fill="#ffffff" d="M 15 25.109375 L 12.277344 25.109375 C 11.054688 25.109375 9.867188 24.867188 8.746094 24.386719 C 7.667969 23.921875 6.695312 23.257812 5.863281 22.410156 C 5.03125 21.566406 4.375 20.582031 3.917969 19.484375 C 3.445312 18.347656 3.207031 17.140625 3.207031 15.898438 C 3.207031 14.65625 3.445312 13.449219 3.917969 12.3125 C 4.375 11.214844 5.03125 10.230469 5.863281 9.382812 C 6.695312 8.539062 7.667969 7.875 8.746094 7.410156 C 9.867188 6.929688 11.054688 6.6875 12.277344 6.6875 L 17.722656 6.6875 C 18.945312 6.6875 20.132812 6.929688 21.253906 7.410156 C 22.332031 7.875 23.304688 8.539062 24.136719 9.382812 C 24.96875 10.230469 25.625 11.214844 26.082031 12.3125 C 26.554688 13.449219 26.792969 14.65625 26.792969 15.898438 L 25.886719 15.898438 C 25.886719 11.328125 22.222656 7.605469 17.722656 7.605469 L 12.277344 7.605469 C 7.777344 7.605469 4.113281 11.328125 4.113281 15.898438 C 4.113281 20.46875 7.777344 24.1875 12.277344 24.1875 L 15 24.1875 L 15 25.109375 " fill-opacity="1" fill-rule="nonzero"/><g clip-path="url(#18542c2ce7)"><path fill="#ffffff" d="M 4.113281 19.582031 C 2.109375 19.582031 0.484375 17.933594 0.484375 15.898438 C 0.484375 13.863281 2.109375 12.214844 4.113281 12.214844 L 4.113281 19.582031 " fill-opacity="1" fill-rule="nonzero"/></g><g clip-path="url(#0f81eacee4)"><path fill="#ffffff" d="M 25.886719 19.582031 C 27.890625 19.582031 29.515625 17.933594 29.515625 15.898438 C 29.515625 13.863281 27.890625 12.214844 25.886719 12.214844 L 25.886719 19.582031 " fill-opacity="1" fill-rule="nonzero"/></g><path fill="#ffffff" d="M 17.269531 10.832031 C 17.269531 11.847656 16.253906 12.671875 15 12.671875 C 13.746094 12.671875 12.730469 11.847656 12.730469 10.832031 C 12.730469 9.8125 13.746094 8.988281 15 8.988281 C 16.253906 8.988281 17.269531 9.8125 17.269531 10.832031 " fill-opacity="1" fill-rule="nonzero"/><g clip-path="url(#781ac31292)"><path fill="#ffffff" d="M 16.359375 3.921875 C 16.359375 4.683594 15.75 5.304688 15 5.304688 C 14.25 5.304688 13.640625 4.683594 13.640625 3.921875 C 13.640625 3.160156 14.25 2.539062 15 2.539062 C 15.75 2.539062 16.359375 3.160156 16.359375 3.921875 " fill-opacity="1" fill-rule="nonzero"/></g><g clip-path="url(#0e132b3d54)"><path fill="#ffffff" d="M 17.722656 24.648438 C 17.722656 25.667969 16.707031 26.492188 15.453125 26.492188 C 14.199219 26.492188 13.183594 25.667969 13.183594 24.648438 C 13.183594 23.632812 14.199219 22.808594 15.453125 22.808594 C 16.707031 22.808594 17.722656 23.632812 17.722656 24.648438 " fill-opacity="1" fill-rule="nonzero"/></g><path fill="#ffffff" d="M 15.453125 12.234375 L 14.546875 12.234375 L 14.546875 3.921875 L 15.453125 3.921875 L 15.453125 12.234375 " fill-opacity="1" fill-rule="nonzero"/></svg>